<svg width="900" height="900" xmlns="http://www.w3.org/2000/svg">
<polygon points="225.0,450.0 675.0,450.0 450.0,900.0 " fill="black"/>
<polygon points="112.5,675.0 337.5,675.0 225.0,900.0 " fill="black"/>
<polygon points="56.25,787.5 168.75,787.5 112.5,900.0 " fill="black"/>
<polygon points="28.125,843.75 84.375,843.75 56.25,900.0 " fill="black"/>
<polygon points="14.0625,871.875 42.1875,871.875 28.125,900.0 " fill="black"/>
<polygon points="42.1875,815.625 70.3125,815.625 56.25,843.75 " fill="black"/>
<polygon points="70.3125,871.875 98.4375,871.875 84.375,900.0 " fill="black"/>
<polygon points="84.375,731.25 140.625,731.25 112.5,787.5 " fill="black"/>
<polygon points="70.3125,759.375 98.4375,759.375 84.375,787.5 " fill="black"/>
<polygon points="98.4375,703.125 126.5625,703.125 112.5,731.25 " fill="black"/>
<polygon points="126.5625,759.375 154.6875,759.375 140.625,787.5 " fill="black"/>
<polygon points="140.625,843.75 196.875,843.75 168.75,900.0 " fill="black"/>
<polygon points="126.5625,871.875 154.6875,871.875 140.625,900.0 " fill="black"/>
<polygon points="154.6875,815.625 182.8125,815.625 168.75,843.75 " fill="black"/>
<polygon points="182.8125,871.875 210.9375,871.875 196.875,900.0 " fill="black"/>
<polygon points="168.75,562.5 281.25,562.5 225.0,675.0 " fill="black"/>
<polygon points="140.625,618.75 196.875,618.75 168.75,675.0 " fill="black"/>
<polygon points="126.5625,646.875 154.6875,646.875 140.625,675.0 " fill="black"/>
<polygon points="154.6875,590.625 182.8125,590.625 168.75,618.75 " fill="black"/>
<polygon points="182.8125,646.875 210.9375,646.875 196.875,675.0 " fill="black"/>
<polygon points="196.875,506.25 253.125,506.25 225.0,562.5 " fill="black"/>
<polygon points="182.8125,534.375 210.9375,534.375 196.875,562.5 " fill="black"/>
<polygon points="210.9375,478.125 239.0625,478.125 225.0,506.25 " fill="black"/>
<polygon points="239.0625,534.375 267.1875,534.375 253.125,562.5 " fill="black"/>
<polygon points="253.125,618.75 309.375,618.75 281.25,675.0 " fill="black"/>
<polygon points="239.0625,646.875 267.1875,646.875 253.125,675.0 " fill="black"/>
<polygon points="267.1875,590.625 295.3125,590.625 281.25,618.75 " fill="black"/>
<polygon points="295.3125,646.875 323.4375,646.875 309.375,675.0 " fill="black"/>
<polygon points="281.25,787.5 393.75,787.5 337.5,900.0 " fill="black"/>
<polygon points="253.125,843.75 309.375,843.75 281.25,900.0 " fill="black"/>
<polygon points="239.0625,871.875 267.1875,871.875 253.125,900.0 " fill="black"/>
<polygon points="267.1875,815.625 295.3125,815.625 281.25,843.75 " fill="black"/>
<polygon points="295.3125,871.875 323.4375,871.875 309.375,900.0 " fill="black"/>
<polygon points="309.375,731.25 365.625,731.25 337.5,787.5 " fill="black"/>
<polygon points="295.3125,759.375 323.4375,759.375 309.375,787.5 " fill="black"/>
<polygon points="323.4375,703.125 351.5625,703.125 337.5,731.25 " fill="black"/>
<polygon points="351.5625,759.375 379.6875,759.375 365.625,787.5 " fill="black"/>
<polygon points="365.625,843.75 421.875,843.75 393.75,900.0 " fill="black"/>
<polygon points="351.5625,871.875 379.6875,871.875 365.625,900.0 " fill="black"/>
<polygon points="379.6875,815.625 407.8125,815.625 393.75,843.75 " fill="black"/>
<polygon points="407.8125,871.875 435.9375,871.875 421.875,900.0 " fill="black"/>
<polygon points="337.5,225.0 562.5,225.0 450.0,450.0 " fill="black"/>
<polygon points="281.25,337.5 393.75,337.5 337.5,450.0 " fill="black"/>
<polygon points="253.125,393.75 309.375,393.75 281.25,450.0 " fill="black"/>
<polygon points="239.0625,421.875 267.1875,421.875 253.125,450.0 " fill="black"/>
<polygon points="267.1875,365.625 295.3125,365.625 281.25,393.75 " fill="black"/>
<polygon points="295.3125,421.875 323.4375,421.875 309.375,450.0 " fill="black"/>
<polygon points="309.375,281.25 365.625,281.25 337.5,337.5 " fill="black"/>
<polygon points="295.3125,309.375 323.4375,309.375 309.375,337.5 " fill="black"/>
<polygon points="323.4375,253.125 351.5625,253.125 337.5,281.25 " fill="black"/>
<polygon points="351.5625,309.375 379.6875,309.375 365.625,337.5 " fill="black"/>
<polygon points="365.625,393.75 421.875,393.75 393.75,450.0 " fill="black"/>
<polygon points="351.5625,421.875 379.6875,421.875 365.625,450.0 " fill="black"/>
<polygon points="379.6875,365.625 407.8125,365.625 393.75,393.75 " fill="black"/>
<polygon points="407.8125,421.875 435.9375,421.875 421.875,450.0 " fill="black"/>
<polygon points="393.75,112.5 506.25,112.5 450.0,225.0 " fill="black"/>
<polygon points="365.625,168.75 421.875,168.75 393.75,225.0 " fill="black"/>
<polygon points="351.5625,196.875 379.6875,196.875 365.625,225.0 " fill="black"/>
<polygon points="379.6875,140.625 407.8125,140.625 393.75,168.75 " fill="black"/>
<polygon points="407.8125,196.875 435.9375,196.875 421.875,225.0 " fill="black"/>
<polygon points="421.875,56.25 478.125,56.25 450.0,112.5 " fill="black"/>
<polygon points="407.8125,84.375 435.9375,84.375 421.875,112.5 " fill="black"/>
<polygon points="435.9375,28.125 464.0625,28.125 450.0,56.25 " fill="black"/>
<polygon points="464.0625,84.375 492.1875,84.375 478.125,112.5 " fill="black"/>
<polygon points="478.125,168.75 534.375,168.75 506.25,225.0 " fill="black"/>
<polygon points="464.0625,196.875 492.1875,196.875 478.125,225.0 " fill="black"/>
<polygon points="492.1875,140.625 520.3125,140.625 506.25,168.75 " fill="black"/>
<polygon points="520.3125,196.875 548.4375,196.875 534.375,225.0 " fill="black"/>
<polygon points="506.25,337.5 618.75,337.5 562.5,450.0 " fill="black"/>
<polygon points="478.125,393.75 534.375,393.75 506.25,450.0 " fill="black"/>
<polygon points="464.0625,421.875 492.1875,421.875 478.125,450.0 " fill="black"/>
<polygon points="492.1875,365.625 520.3125,365.625 506.25,393.75 " fill="black"/>
<polygon points="520.3125,421.875 548.4375,421.875 534.375,450.0 " fill="black"/>
<polygon points="534.375,281.25 590.625,281.25 562.5,337.5 " fill="black"/>
<polygon points="520.3125,309.375 548.4375,309.375 534.375,337.5 " fill="black"/>
<polygon points="548.4375,253.125 576.5625,253.125 562.5,281.25 " fill="black"/>
<polygon points="576.5625,309.375 604.6875,309.375 590.625,337.5 " fill="black"/>
<polygon points="590.625,393.75 646.875,393.75 618.75,450.0 " fill="black"/>
<polygon points="576.5625,421.875 604.6875,421.875 590.625,450.0 " fill="black"/>
<polygon points="604.6875,365.625 632.8125,365.625 618.75,393.75 " fill="black"/>
<polygon points="632.8125,421.875 660.9375,421.875 646.875,450.0 " fill="black"/>
<polygon points="562.5,675.0 787.5,675.0 675.0,900.0 " fill="black"/>
<polygon points="506.25,787.5 618.75,787.5 562.5,900.0 " fill="black"/>
<polygon points="478.125,843.75 534.375,843.75 506.25,900.0 " fill="black"/>
<polygon points="464.0625,871.875 492.1875,871.875 478.125,900.0 " fill="black"/>
<polygon points="492.1875,815.625 520.3125,815.625 506.25,843.75 " fill="black"/>
<polygon points="520.3125,871.875 548.4375,871.875 534.375,900.0 " fill="black"/>
<polygon points="534.375,731.25 590.625,731.25 562.5,787.5 " fill="black"/>
<polygon points="520.3125,759.375 548.4375,759.375 534.375,787.5 " fill="black"/>
<polygon points="548.4375,703.125 576.5625,703.125 562.5,731.25 " fill="black"/>
<polygon points="576.5625,759.375 604.6875,759.375 590.625,787.5 " fill="black"/>
<polygon points="590.625,843.75 646.875,843.75 618.75,900.0 " fill="black"/>
<polygon points="576.5625,871.875 604.6875,871.875 590.625,900.0 " fill="black"/>
<polygon points="604.6875,815.625 632.8125,815.625 618.75,843.75 " fill="black"/>
<polygon points="632.8125,871.875 660.9375,871.875 646.875,900.0 " fill="black"/>
<polygon points="618.75,562.5 731.25,562.5 675.0,675.0 " fill="black"/>
<polygon points="590.625,618.75 646.875,618.75 618.75,675.0 " fill="black"/>
<polygon points="576.5625,646.875 604.6875,646.875 590.625,675.0 " fill="black"/>
<polygon points="604.6875,590.625 632.8125,590.625 618.75,618.75 " fill="black"/>
<polygon points="632.8125,646.875 660.9375,646.875 646.875,675.0 " fill="black"/>
<polygon points="646.875,506.25 703.125,506.25 675.0,562.5 " fill="black"/>
<polygon points="632.8125,534.375 660.9375,534.375 646.875,562.5 " fill="black"/>
<polygon points="660.9375,478.125 689.0625,478.125 675.0,506.25 " fill="black"/>
<polygon points="689.0625,534.375 717.1875,534.375 703.125,562.5 " fill="black"/>
<polygon points="703.125,618.75 759.375,618.75 731.25,675.0 " fill="black"/>
<polygon points="689.0625,646.875 717.1875,646.875 703.125,675.0 " fill="black"/>
<polygon points="717.1875,590.625 745.3125,590.625 731.25,618.75 " fill="black"/>
<polygon points="745.3125,646.875 773.4375,646.875 759.375,675.0 " fill="black"/>
<polygon points="731.25,787.5 843.75,787.5 787.5,900.0 " fill="black"/>
<polygon points="703.125,843.75 759.375,843.75 731.25,900.0 " fill="black"/>
<polygon points="689.0625,871.875 717.1875,871.875 703.125,900.0 " fill="black"/>
<polygon points="717.1875,815.625 745.3125,815.625 731.25,843.75 " fill="black"/>
<polygon points="745.3125,871.875 773.4375,871.875 759.375,900.0 " fill="black"/>
<polygon points="759.375,731.25 815.625,731.25 787.5,787.5 " fill="black"/>
<polygon points="745.3125,759.375 773.4375,759.375 759.375,787.5 " fill="black"/>
<polygon points="773.4375,703.125 801.5625,703.125 787.5,731.25 " fill="black"/>
<polygon points="801.5625,759.375 829.6875,759.375 815.625,787.5 " fill="black"/>
<polygon points="815.625,843.75 871.875,843.75 843.75,900.0 " fill="black"/>
<polygon points="801.5625,871.875 829.6875,871.875 815.625,900.0 " fill="black"/>
<polygon points="829.6875,815.625 857.8125,815.625 843.75,843.75 " fill="black"/>
<polygon points="857.8125,871.875 885.9375,871.875 871.875,900.0 " fill="black"/>
</svg>